<svg width="45" height="45" viewBox="0 0 45 45" fill="none" xmlns="http://www.w3.org/2000/svg">
<rect x="0.5" y="0.5" width="44" height="44" stroke="#EAE7DC"/>
<path fill-rule="evenodd" clip-rule="evenodd" d="M14.7694 21.3963C19.5944 19.2617 22.8197 17.882 24.4195 17.2052C29.0123 15.2788 29.967 14.9404 30.5862 14.9404C30.7152 14.9404 31.0249 14.9665 31.2313 15.1227C31.3861 15.2528 31.4377 15.435 31.4635 15.5652C31.4893 15.6953 31.5151 15.9817 31.4893 16.216C31.2313 18.8452 30.1734 25.275 29.6057 28.2166C29.3735 29.4661 28.9091 29.8826 28.4704 29.9347C27.5157 30.0127 26.7675 29.2839 25.8386 28.6851C24.3936 27.722 23.568 27.1232 22.1488 26.1861C20.5233 25.0928 21.5812 24.494 22.5101 23.5309C22.7423 23.2706 26.9997 19.3918 27.0771 19.0274C27.0771 18.9753 27.1029 18.8191 26.9997 18.741C26.8965 18.663 26.7675 18.689 26.6643 18.715C26.5094 18.741 24.1872 20.3029 19.6718 23.3747C19.0009 23.8432 18.4075 24.0515 17.8656 24.0515C17.2722 24.0515 16.1369 23.7131 15.2854 23.4267C14.2533 23.0883 13.4276 22.9061 13.505 22.3334C13.5824 22.021 13.9953 21.7087 14.7694 21.3963Z" fill="#7E7C7A"/>
</svg>
