<svg width="45" height="45" viewBox="0 0 45 45" fill="none" xmlns="http://www.w3.org/2000/svg">
<rect x="0.5" y="0.5" width="44" height="44" stroke="#EAE7DC"/>
<path fill-rule="evenodd" clip-rule="evenodd" d="M15.2762 28.071L14.8203 31.2711C14.7999 31.4148 14.9338 31.532 15.073 31.4921L18.2725 30.5753L20.289 31.1416C25.6863 32.6572 31.1076 28.8114 31.4804 23.2026C31.6551 20.5753 30.655 18.0064 28.7516 16.1928L28.4959 15.9492C24.8292 12.4556 18.9978 12.7344 15.6792 16.5621C13.3197 19.2835 12.8295 23.1633 14.4376 26.3889L15.2762 28.071ZM18.2726 19.5114L18.6332 18.6152C18.8893 17.9787 19.6562 17.7965 20.1427 18.2566L20.9316 19.0039C21.2384 19.2941 21.3344 19.7587 21.1728 20.1601L21.0614 20.433C20.884 20.8737 20.5909 21.7692 20.848 22.1631C21.0493 22.4715 21.6631 23.1655 21.9109 23.3999C22.1245 23.6019 22.7835 24.1408 23.0606 24.3046C23.525 24.579 24.4146 24.0989 24.823 23.7377C25.1872 23.4157 25.7196 23.4317 26.0666 23.7749L26.6955 24.4138C27.1657 24.8789 27.0786 25.6955 26.5225 26.0363L25.7022 26.539C25.0648 26.9297 24.3287 27.1248 23.6202 26.9134C22.7692 26.6596 21.5399 26.1226 20.3451 24.9923C19.1502 23.8621 18.5047 22.6259 18.1679 21.7561C17.8875 21.0321 17.983 20.2311 18.2726 19.5114Z" fill="#7E7C7A"/>
</svg>
