<svg width="26" height="25" viewBox="0 0 26 25" fill="none" xmlns="http://www.w3.org/2000/svg">
<path d="M10.31 0.64987C9.02668 0.816537 7.79334 1.19154 6.61001 1.77487C5.01001 2.5582 3.65584 3.64987 2.54751 5.04987C1.43918 6.44987 0.68501 8.02487 0.28501 9.77487C0.168343 10.2749 0.0933431 10.6915 0.0600098 11.0249C0.0266764 11.3582 0.0100098 11.8499 0.0100098 12.4999C0.0100098 13.1499 0.0266764 13.6415 0.0600098 13.9749C0.0933431 14.3082 0.168343 14.7249 0.28501 15.2249C0.668343 16.8582 1.35584 18.3374 2.34751 19.6624C3.33918 20.9874 4.54751 22.0624 5.97251 22.8874C7.39751 23.7124 8.94334 24.2082 10.61 24.3749C11.01 24.4082 11.5183 24.4165 12.135 24.3999C12.7517 24.3832 13.2517 24.3415 13.635 24.2749C15.3517 23.9749 16.9058 23.3499 18.2975 22.3999C19.6892 21.4499 20.8308 20.2457 21.7225 18.7874C22.6142 17.329 23.185 15.7249 23.435 13.9749C23.4683 13.6415 23.485 13.1249 23.485 12.4249C23.485 11.7249 23.46 11.2124 23.41 10.8874C23.36 10.5624 23.3267 10.3915 23.31 10.3749C23.2933 10.3582 22.86 10.6665 22.01 11.2999L20.735 12.2499V12.7499C20.735 13.7332 20.5433 14.7249 20.16 15.7249C19.6933 16.9915 18.9767 18.0957 18.01 19.0374C17.0433 19.979 15.9308 20.6749 14.6725 21.1249C13.4142 21.5749 12.1183 21.7249 10.785 21.5749C9.03501 21.3915 7.47668 20.7374 6.11001 19.6124C4.74334 18.4874 3.77668 17.0832 3.21001 15.3999C2.57668 13.4832 2.56834 11.5665 3.18501 9.64987C3.56834 8.4832 4.16418 7.4332 4.97251 6.49987C5.78084 5.56654 6.72668 4.8332 7.81001 4.29987C9.22668 3.59987 10.7058 3.2957 12.2475 3.38737C13.7892 3.47904 15.235 3.94987 16.585 4.79987L16.835 4.97487L17.985 4.12487C18.7517 3.54154 19.1308 3.23737 19.1225 3.21237C19.1142 3.18737 18.9517 3.06237 18.635 2.83737C18.3183 2.61237 18.035 2.42487 17.785 2.27487C16.535 1.5082 15.1517 0.991537 13.635 0.72487C13.2517 0.658203 12.7017 0.616537 11.985 0.59987C11.2683 0.583203 10.71 0.59987 10.31 0.64987ZM16.36 8.67487C13.31 10.9582 11.7725 12.0999 11.7475 12.0999C11.7225 12.0999 10.9892 11.6415 9.54751 10.7249C8.10584 9.8082 7.36418 9.3457 7.32251 9.33737C7.28084 9.32904 7.26001 9.89987 7.26001 11.0499V12.7749L9.48501 14.1749C10.9517 15.1082 11.7017 15.5749 11.735 15.5749C11.7683 15.5749 13.5267 14.279 17.01 11.6874C20.4933 9.0957 22.285 7.74987 22.385 7.64987C22.4183 7.61654 22.4267 7.5707 22.41 7.51237C22.3933 7.45404 22.31 7.27487 22.16 6.97487C21.9933 6.62487 21.7767 6.24987 21.51 5.84987C21.2433 5.44987 21.085 5.2457 21.035 5.23737C20.985 5.22904 19.4267 6.37487 16.36 8.67487Z" fill="#7E7C7A"/>
</svg>
