<svg width="26" height="25" viewBox="0 0 26 25" fill="none" xmlns="http://www.w3.org/2000/svg">
<g clip-path="url(#clip0_14050_3002)">
<path d="M9.8116 0.300482C8.1616 0.450482 6.64494 0.937982 5.2616 1.76298C3.87827 2.58798 2.72827 3.69215 1.8116 5.07548C1.59494 5.39215 1.36577 5.80048 1.1241 6.30048C0.882437 6.80048 0.70327 7.24215 0.586603 7.62548C0.00327001 9.35882 -0.12173 11.1255 0.211603 12.9255C0.544937 14.7255 1.2866 16.3421 2.4366 17.7755C3.1366 18.6421 3.9866 19.3921 4.9866 20.0255C5.9866 20.6588 7.0366 21.1088 8.1366 21.3755C8.81994 21.5588 9.52827 21.663 10.2616 21.688C10.9949 21.713 11.9116 21.6755 13.0116 21.5755C14.8616 21.4255 16.1449 21.3755 16.8616 21.4255C17.6116 21.5088 18.3199 21.6588 18.9866 21.8755C19.5033 22.0588 20.0824 22.338 20.7241 22.713C21.3658 23.088 21.9533 23.5005 22.4866 23.9505C22.7699 24.1671 22.9699 24.3005 23.0866 24.3505C23.2033 24.4005 23.2824 24.3796 23.3241 24.288C23.3658 24.1963 23.3699 24.113 23.3366 24.038C23.3033 23.963 23.1949 23.8088 23.0116 23.5755C21.9783 22.3255 20.8199 21.4005 19.5366 20.8005C19.1366 20.6005 18.7491 20.438 18.3741 20.313C17.9991 20.188 17.4658 20.0421 16.7741 19.8755C16.0824 19.7088 15.5366 19.5505 15.1366 19.4005C14.7366 19.2505 14.3699 19.0755 14.0366 18.8755C13.5033 18.5588 13.0324 18.1921 12.6241 17.7755C12.2158 17.3588 11.8199 16.8338 11.4366 16.2005C11.2366 15.9005 11.1199 15.7505 11.0866 15.7505C10.9533 15.7505 10.9116 16.1671 10.9616 17.0005C11.0116 17.5005 11.0449 17.8005 11.0616 17.9005L11.0866 18.0255L10.4116 18.0005C8.64494 17.9171 7.1116 17.2338 5.8116 15.9505C4.42827 14.5505 3.7366 12.8838 3.7366 10.9505C3.7366 9.85048 3.9741 8.81715 4.4491 7.85048C4.9241 6.88382 5.59494 6.06715 6.4616 5.40048C7.32827 4.73382 8.31994 4.28382 9.4366 4.05048C9.7866 3.96715 10.2366 3.92548 10.7866 3.92548C11.3366 3.92548 11.7866 3.96715 12.1366 4.05048C12.8699 4.20048 13.5241 4.43382 14.0991 4.75048C14.6741 5.06715 15.2199 5.47548 15.7366 5.97548C16.8033 7.04215 17.4783 8.33382 17.7616 9.85048C17.7949 10.0505 17.8199 10.4088 17.8366 10.9255C17.8533 11.4421 17.8491 11.7088 17.8241 11.7255C17.7991 11.7421 17.6033 11.7421 17.2366 11.7255C16.9366 11.6921 16.5741 11.6838 16.1491 11.7005C15.7241 11.7171 15.4824 11.7421 15.4241 11.7755C15.3658 11.8088 15.3574 11.8463 15.3991 11.888C15.4408 11.9296 15.5283 11.9588 15.6616 11.9755C15.8116 12.0088 16.0241 12.0671 16.2991 12.1505C16.5741 12.2338 16.8116 12.3255 17.0116 12.4255C17.3616 12.5921 17.7033 12.813 18.0366 13.088C18.3699 13.363 18.6449 13.6463 18.8616 13.938C19.0783 14.2296 19.2699 14.5963 19.4366 15.038C19.6033 15.4796 19.7199 15.9005 19.7866 16.3005C19.8199 16.4671 19.8658 16.5296 19.9241 16.488C19.9824 16.4463 20.0866 16.2921 20.2366 16.0255C21.0533 14.4755 21.4699 12.8005 21.4866 11.0005C21.4866 10.0338 21.3783 9.13382 21.1616 8.30048C20.8116 6.93382 20.2074 5.68382 19.3491 4.55048C18.4908 3.41715 17.4533 2.48798 16.2366 1.76298C15.0199 1.03798 13.7033 0.575482 12.2866 0.375482C11.9699 0.325482 11.5533 0.292148 11.0366 0.275482C10.5199 0.258815 10.1116 0.267148 9.8116 0.300482ZM18.1616 15.5005C18.1116 15.5671 18.0824 15.6255 18.0741 15.6755C18.0658 15.7255 18.0616 15.8005 18.0616 15.9005C18.0949 16.1505 18.2074 16.4213 18.3991 16.713C18.5908 17.0046 18.7699 17.1505 18.9366 17.1505C19.0366 17.1505 19.1033 17.113 19.1366 17.038C19.1699 16.963 19.1866 16.8338 19.1866 16.6505C19.1866 16.3338 19.1158 16.0505 18.9741 15.8005C18.8324 15.5505 18.6616 15.4171 18.4616 15.4005C18.3783 15.3838 18.3199 15.3838 18.2866 15.4005C18.2533 15.4171 18.2116 15.4505 18.1616 15.5005ZM15.8366 17.2755C15.6366 17.3921 15.5533 17.6255 15.5866 17.9755C15.6033 18.3588 15.7741 18.6546 16.0991 18.863C16.4241 19.0713 16.7533 19.1005 17.0866 18.9505C17.3033 18.8671 17.4366 18.7421 17.4866 18.5755C17.5366 18.4088 17.5116 18.2171 17.4116 18.0005C17.2449 17.6838 16.9991 17.4505 16.6741 17.3005C16.3491 17.1505 16.0699 17.1421 15.8366 17.2755Z" fill="#7E7C7A"/>
</g>
<defs>
<clipPath id="clip0_14050_3002">
<rect width="25.02" height="25" fill="white" transform="matrix(1 0 0 -1 0.0200195 25)"/>
</clipPath>
</defs>
</svg>
