<svg width="26" height="25" viewBox="0 0 26 25" fill="none" xmlns="http://www.w3.org/2000/svg">
<g clip-path="url(#clip0_14050_2996)">
<path d="M7.58999 4.64987C6.75666 4.76653 5.96499 4.99987 5.21499 5.34987C4.09832 5.89987 3.17332 6.67487 2.43999 7.67487C1.70666 8.67487 1.23999 9.79153 1.03999 11.0249C1.00666 11.2915 0.98999 11.6832 0.98999 12.1999C0.98999 12.7165 1.00666 13.0915 1.03999 13.3249C1.32332 14.9415 1.99832 16.3082 3.06499 17.4249C3.69832 18.0749 4.40666 18.5915 5.18999 18.9749C5.87332 19.3082 6.57332 19.5415 7.28999 19.6749C8.28999 19.8415 9.28166 19.8124 10.265 19.5874C11.2483 19.3624 12.1567 18.9499 12.99 18.3499L13.265 18.1499L13.44 18.2999C14.44 19.0332 15.54 19.4915 16.74 19.6749C17.94 19.8582 19.115 19.7707 20.265 19.4124C21.415 19.054 22.4233 18.4415 23.29 17.5749C24.39 16.4749 25.09 15.1832 25.39 13.6999C25.59 12.7499 25.6025 11.7999 25.4275 10.8499C25.2525 9.89987 24.915 9.01653 24.415 8.19987C24.1483 7.74987 23.815 7.3207 23.415 6.91237C23.015 6.50403 22.5983 6.1582 22.165 5.87487C21.4317 5.37487 20.6317 5.01653 19.765 4.79987C19.415 4.69987 18.99 4.63737 18.49 4.61237C17.99 4.58737 17.5483 4.59153 17.165 4.62487C15.7983 4.7582 14.5317 5.2582 13.365 6.12487L13.265 6.19987L13.015 6.02487C12.0983 5.34153 11.0317 4.89153 9.81499 4.67487C9.56499 4.64153 9.19416 4.6207 8.70249 4.61237C8.21082 4.60403 7.83999 4.61653 7.58999 4.64987Z" fill="#7E7C7A"/>
</g>
<defs>
<clipPath id="clip0_14050_2996">
<rect width="25.02" height="25" fill="white" transform="matrix(1 0 0 -1 0.97998 25)"/>
</clipPath>
</defs>
</svg>
