<svg width="26" height="25" viewBox="0 0 26 25" fill="none" xmlns="http://www.w3.org/2000/svg">
<g clip-path="url(#clip0_14050_2993)">
<path d="M16.2952 8.52539C15.4619 8.70872 14.8285 9.05872 14.3952 9.57539C14.2119 9.82539 14.0744 10.1129 13.9827 10.4379C13.891 10.7629 13.8702 11.0587 13.9202 11.3254C13.9869 11.7087 14.1702 12.0504 14.4702 12.3504C14.7702 12.6504 15.2577 12.9754 15.9327 13.3254C16.6077 13.6754 16.8285 14.0421 16.5952 14.4254C16.4452 14.6754 16.0952 14.8087 15.5452 14.8254C14.9452 14.8587 14.3619 14.7504 13.7952 14.5004C13.4952 14.3837 13.3452 14.3254 13.3452 14.3254L13.0452 16.0004C13.0452 16.0671 13.0577 16.1129 13.0827 16.1379C13.1077 16.1629 13.2035 16.2004 13.3702 16.2504C14.1202 16.4837 14.8452 16.5837 15.5452 16.5504C16.2452 16.5171 16.8702 16.3671 17.4202 16.1004C17.9202 15.8671 18.2994 15.5296 18.5577 15.0879C18.816 14.6462 18.9202 14.1754 18.8702 13.6754C18.8369 13.2421 18.6744 12.8712 18.3827 12.5629C18.091 12.2546 17.6119 11.9254 16.9452 11.5754C16.5119 11.3587 16.2369 11.1629 16.1202 10.9879C16.0035 10.8129 16.0202 10.6337 16.1702 10.4504C16.2869 10.3337 16.4285 10.2504 16.5952 10.2004C16.7619 10.1504 17.0035 10.1254 17.3202 10.1254C17.5702 10.1254 17.7535 10.1379 17.8702 10.1629C17.9869 10.1879 18.1369 10.2337 18.3202 10.3004L18.8452 10.4754C18.8785 10.4754 18.9452 10.2004 19.0452 9.65039L19.1952 8.77539C19.1952 8.75872 19.1077 8.72122 18.9327 8.66289C18.7577 8.60456 18.566 8.55456 18.3577 8.51289C18.1494 8.47122 17.8035 8.45039 17.3202 8.45039C16.8369 8.45039 16.4952 8.47539 16.2952 8.52539ZM0.970215 8.65039C0.970215 8.70039 0.991048 8.74206 1.03271 8.77539C1.07438 8.80872 1.17855 8.84206 1.34521 8.87539C1.54521 8.94206 1.80355 9.04206 2.12021 9.17539C2.43688 9.30872 2.67855 9.41706 2.84521 9.50039C2.94521 9.55039 3.01188 9.60039 3.04521 9.65039C3.07855 9.70039 3.11188 9.77539 3.14521 9.87539L4.87021 16.4004L7.09521 16.3754L9.49522 10.5004C9.99522 9.26706 10.2452 8.63372 10.2452 8.60039C10.2452 8.56706 9.88688 8.55039 9.17021 8.55039H8.07021L7.09521 11.1504C6.44521 12.9004 6.11188 13.7587 6.09521 13.7254L5.29522 9.67539C5.21188 9.32539 5.14521 9.10039 5.09521 9.00039C5.04521 8.90039 4.97021 8.80872 4.87021 8.72539C4.77021 8.64206 4.59521 8.59206 4.34521 8.57539C4.09521 8.55872 3.53688 8.55039 2.67021 8.55039H0.970215V8.65039ZM10.9952 8.65039C10.9952 8.66706 10.9869 8.75872 10.9702 8.92539L9.97021 14.9504C9.83688 15.8504 9.77022 16.3212 9.77022 16.3629C9.77022 16.4046 9.82855 16.4296 9.94522 16.4379C10.0619 16.4462 10.3452 16.4504 10.7952 16.4504L11.8452 16.4254L12.6202 11.6254C12.9369 9.65872 13.0994 8.65872 13.1077 8.62539C13.116 8.59206 13.0702 8.57122 12.9702 8.56289C12.8702 8.55456 12.5785 8.55039 12.0952 8.55039H11.3452C11.1952 8.55039 11.1035 8.55872 11.0702 8.57539C11.0369 8.59206 11.0119 8.61706 10.9952 8.65039ZM22.3702 8.60039C22.2202 8.63372 22.0785 8.71706 21.9452 8.85039C21.8619 8.95039 21.7285 9.20039 21.5452 9.60039C21.3619 10.0004 20.9285 11.0171 20.2452 12.6504C19.2619 15.0171 18.7535 16.2504 18.7202 16.3504L18.6952 16.4504L20.8452 16.4254L21.2702 15.3004H23.8452L24.0702 16.4504H25.9702V16.3254C25.9702 16.2754 25.7119 15.0087 25.1952 12.5254C24.6785 10.0421 24.4035 8.74206 24.3702 8.62539C24.3702 8.59206 24.3202 8.57122 24.2202 8.56289C24.1202 8.55456 23.8702 8.55039 23.4702 8.55039C22.8702 8.55039 22.5035 8.56706 22.3702 8.60039ZM23.4702 13.5754C23.4702 13.6087 23.2035 13.6254 22.6702 13.6254H21.8702L22.9202 10.8254L23.4702 13.5754Z" fill="#7E7C7A"/>
</g>
<defs>
<clipPath id="clip0_14050_2993">
<rect width="25.02" height="25" fill="white" transform="matrix(1 0 0 -1 0.959961 25)"/>
</clipPath>
</defs>
</svg>
