<svg width="41" height="40" viewBox="0 0 41 40" fill="none" xmlns="http://www.w3.org/2000/svg">
<circle cx="20.2242" cy="23" r="6" stroke="#E76325" stroke-width="2.5"/>
<path d="M16.2244 36.9998H24.2244C29.8423 36.9998 32.6512 36.9998 34.669 35.6515C35.5425 35.0679 36.2925 34.3179 36.8762 33.4443C38.2244 31.4266 38.2244 28.6176 38.2244 22.9998C38.2244 17.3819 38.2241 14.5735 36.8759 12.5557C36.2922 11.6821 35.5422 10.9321 34.6687 10.3485C32.6509 9.00023 29.842 9.00023 24.2241 9.00023H16.2241C10.6063 9.00023 7.79737 9.00023 5.77958 10.3485C4.90606 10.9321 4.15606 11.6821 3.57239 12.5557C2.22444 14.573 2.22444 17.3807 2.22444 22.9961L2.22444 22.9998C2.22444 28.6176 2.22444 31.4266 3.57268 33.4443C4.15635 34.3179 4.90636 35.0679 5.77988 35.6515C7.79767 36.9998 10.6066 36.9998 16.2244 36.9998Z" stroke="#E76325" stroke-width="2.5"/>
<path d="M32.2242 17H31.2242" stroke="#E76325" stroke-width="2.5" stroke-linecap="round"/>
<path d="M26.2242 3H14.2242" stroke="#E76325" stroke-width="2.5" stroke-linecap="round"/>
</svg>
