<svg width="50" height="51" viewBox="0 0 50 51" fill="none" xmlns="http://www.w3.org/2000/svg">
<rect x="0.5" y="1" width="49" height="49" fill="#F4F3EC"/>
<rect x="0.5" y="1" width="49" height="49" stroke="#EAE7DC"/>
<path fill-rule="evenodd" clip-rule="evenodd" d="M20.4163 16.3333C17.885 16.3333 15.833 18.3854 15.833 20.9167V30.0833C15.833 32.6147 17.885 34.6667 20.4163 34.6667H29.583C32.1143 34.6667 34.1663 32.6147 34.1663 30.0833V20.9167C34.1663 18.3854 32.1143 16.3333 29.583 16.3333H20.4163ZM24.9997 22.1667C23.1587 22.1667 21.6663 23.659 21.6663 25.5C21.6663 27.3409 23.1587 28.8333 24.9997 28.8333C26.8406 28.8333 28.333 27.3409 28.333 25.5C28.333 23.659 26.8406 22.1667 24.9997 22.1667ZM19.9997 25.5C19.9997 22.7386 22.2382 20.5 24.9997 20.5C27.7611 20.5 29.9997 22.7386 29.9997 25.5C29.9997 28.2614 27.7611 30.5 24.9997 30.5C22.2382 30.5 19.9997 28.2614 19.9997 25.5ZM29.9997 18.8333C29.0792 18.8333 28.333 19.5795 28.333 20.5C28.333 21.4205 29.0792 22.1667 29.9997 22.1667C30.9202 22.1667 31.6663 21.4205 31.6663 20.5C31.6663 19.5795 30.9202 18.8333 29.9997 18.8333Z" fill="#7E7C7A"/>
</svg>
