<svg width="41" height="40" viewBox="0 0 41 40" fill="none" xmlns="http://www.w3.org/2000/svg">
<path d="M23.8332 6H16.6153C9.81014 6 6.40757 6 4.29348 8.10883C2.83788 9.56081 2.3845 11.6221 2.24328 14.981C2.21528 15.6472 2.20127 15.9802 2.32566 16.2024C2.45005 16.4247 2.94663 16.702 3.93979 17.2566C5.04278 17.8725 5.78837 19.0494 5.78837 20.4C5.78837 21.7506 5.04278 22.9275 3.93979 23.5434C2.94664 24.098 2.45005 24.3753 2.32566 24.5976C2.20127 24.8198 2.21528 25.1528 2.24328 25.819C2.3845 29.1779 2.83788 31.2392 4.29348 32.6912C6.40757 34.8 9.81014 34.8 16.6153 34.8H23.8332C30.6383 34.8 34.0409 34.8 36.155 32.6912C37.6106 31.2392 38.064 29.1779 38.2052 25.819C38.2332 25.1528 38.2472 24.8198 38.1228 24.5976C37.9984 24.3753 37.5019 24.098 36.5087 23.5434C35.4057 22.9275 34.6601 21.7506 34.6601 20.4C34.6601 19.0494 35.4057 17.8725 36.5087 17.2566C37.5019 16.702 37.9984 16.4247 38.1228 16.2024C38.2472 15.9802 38.2332 15.6472 38.2052 14.981C38.064 11.6221 37.6106 9.56081 36.155 8.10883C34.0409 6 30.6383 6 23.8332 6Z" stroke="#E76325" stroke-width="2.5"/>
<path d="M14.8242 25.8L25.6242 15" stroke="#E76325" stroke-width="2.5" stroke-linecap="round"/>
<path d="M25.2742 24.9001C25.2742 25.2039 25.028 25.4501 24.7242 25.4501C24.4204 25.4501 24.1742 25.2039 24.1742 24.9001C24.1742 24.5963 24.4204 24.3501 24.7242 24.3501C25.028 24.3501 25.2742 24.5963 25.2742 24.9001Z" fill="#E76325" stroke="#E76325" stroke-width="2.5"/>
<path d="M16.2742 15.9001C16.2742 16.2039 16.028 16.4501 15.7242 16.4501C15.4204 16.4501 15.1742 16.2039 15.1742 15.9001C15.1742 15.5963 15.4204 15.3501 15.7242 15.3501C16.028 15.3501 16.2742 15.5963 16.2742 15.9001Z" fill="#E76325" stroke="#E76325" stroke-width="2.5"/>
</svg>
