<svg width="21" height="20" viewBox="0 0 21 20" fill="none" xmlns="http://www.w3.org/2000/svg">
<path d="M10.4742 5.5H6.42424C5.82751 5.5 5.25521 5.26295 4.83325 4.84099C4.4113 4.41903 4.17424 3.84674 4.17424 3.25C4.17424 2.65326 4.4113 2.08097 4.83325 1.65901C5.25521 1.23705 5.82751 1 6.42424 1C9.57424 1 10.4742 5.5 10.4742 5.5ZM10.4742 5.5H14.5242C15.121 5.5 15.6933 5.26295 16.1152 4.84099C16.5372 4.41903 16.7742 3.84674 16.7742 3.25C16.7742 2.65326 16.5372 2.08097 16.1152 1.65901C15.6933 1.23705 15.121 1 14.5242 1C11.3742 1 10.4742 5.5 10.4742 5.5ZM10.4742 5.5L10.4742 19M1.47424 11.8H19.4742M1.47424 8.38L1.47424 16.12C1.47424 17.1281 1.47424 17.6321 1.67043 18.0172C1.843 18.3559 2.11837 18.6312 2.45706 18.8038C2.8421 19 3.34615 19 4.35424 19L16.5942 19C17.6023 19 18.1064 19 18.4914 18.8038C18.8301 18.6312 19.1055 18.3559 19.2781 18.0172C19.4742 17.6321 19.4742 17.1281 19.4742 16.12V8.38C19.4742 7.37191 19.4742 6.86786 19.2781 6.48282C19.1055 6.14413 18.8301 5.86876 18.4914 5.69619C18.1064 5.5 17.6023 5.5 16.5942 5.5L4.35424 5.5C3.34615 5.5 2.8421 5.5 2.45706 5.69619C2.11837 5.86876 1.843 6.14413 1.67043 6.48282C1.47424 6.86786 1.47424 7.37191 1.47424 8.38Z" stroke="white" stroke-width="1.5" stroke-linecap="round" stroke-linejoin="round"/>
</svg>
