<svg width="41" height="40" viewBox="0 0 41 40" fill="none" xmlns="http://www.w3.org/2000/svg">
<path d="M30.7729 13.0195L32.5153 13.6003C34.3335 14.2064 35.2427 14.5094 35.7627 15.2309C36.2827 15.9524 36.2827 16.9107 36.2827 18.8273V29.2347C36.2827 31.6055 36.2827 32.7909 35.6588 33.5524C35.4468 33.8111 35.1896 34.029 34.8997 34.1955C34.046 34.6857 32.8767 34.4908 30.5381 34.1011C28.2306 33.7165 27.0768 33.5242 25.9333 33.6199C25.5319 33.6535 25.1333 33.7134 24.7398 33.7993C23.6187 34.0442 22.5633 34.5719 20.4525 35.6273C17.6981 37.0044 16.321 37.693 14.855 37.9053C14.4135 37.9692 13.9679 38.0009 13.5217 38C12.0405 37.9972 10.5923 37.5145 7.6961 36.5491L6.99165 36.3143C5.17338 35.7082 4.26425 35.4052 3.74425 34.6837C3.22424 33.9622 3.22424 33.0039 3.22424 31.0873V22.0335C3.22424 18.9868 3.22424 17.4634 4.12125 16.6442C4.27821 16.5008 4.45124 16.3761 4.63688 16.2725C5.69777 15.6806 7.14294 16.1623 10.0333 17.1258" stroke="#E76325" stroke-width="2.5"/>
<path d="M8.73401 12.4691C8.73401 6.68716 13.6676 2 19.7535 2C25.8394 2 30.773 6.68716 30.773 12.4691C30.773 18.2057 27.2559 24.8997 21.7686 27.2936C20.4894 27.8516 19.0176 27.8516 17.7384 27.2936C12.251 24.8997 8.73401 18.2057 8.73401 12.4691Z" stroke="#E76325" stroke-width="2.5"/>
<circle cx="19.7535" cy="13.0194" r="3.67316" stroke="#E76325" stroke-width="2.5"/>
</svg>
